<svg xmlns="http://www.w3.org/2000/svg" width="400" height="400">
  <path d="M299 3c-8 2-18 7-79 37l-64 31c-49 24-55 28-74 46-33 34-51 77-51 125 0 41 9 61 25 53 8-5 9-9 6-25a150 150 0 0 1 89-166l69-33c88-44 87-43 97-41 22 6 31 31 18 49-4 5-33 20-105 55-55 27-57 28-62 39-4 8-4 8-5 78v67l-2 4c-7 13-21 18-34 11l-10-5c-13-7-26 0-31 15-4 14 4 24 31 37 103 50 224-11 249-124 3-14 4-101 3-174l-1-36-2-6c-12-27-42-44-67-37m43 119v25l-1 13-3 3c-4 4-19 11-80 42-39 19-54 27-55 29-8 9-2 23 9 23 5 0 16-5 91-43l38-19-1 47a149 149 0 0 1-188 121l5-2c17-7 29-20 32-35l2-98c0-31 1-43 3-44l148-75v13m-232 55c-11 4-11 18-1 24 13 7 28-2 25-15-3-9-14-13-24-9m8 89c-18 2-26 11-20 23 4 7 8 7 27 4 19-2 22-4 23-13 0-13-8-17-30-14" fill="red" fill-rule="evenodd"/>
</svg>

